<svg width="24" height="24" viewBox="0 0 24 24" fill="none" xmlns="http://www.w3.org/2000/svg">
<path d="M3.08997 6.72997C3.08997 5.90997 3.70998 4.97998 4.47998 4.66998L10.05 2.39001C11.3 1.88001 12.71 1.88001 13.96 2.39001L19.53 4.66998C20.29 4.97998 20.92 5.90997 20.92 6.72997V11.12C20.92 16.01 17.37 20.59 12.52 21.93C12.19 22.02 11.83 22.02 11.5 21.93C6.64997 20.59 3.09998 16.01 3.09998 11.12" stroke="#666666" stroke-width="1.5" stroke-linecap="round" stroke-linejoin="round"/>
<path d="M12 12.5C13.1046 12.5 14 11.6046 14 10.5C14 9.39543 13.1046 8.5 12 8.5C10.8954 8.5 10 9.39543 10 10.5C10 11.6046 10.8954 12.5 12 12.5Z" stroke="#666666" stroke-width="1.5" stroke-miterlimit="10" stroke-linecap="round" stroke-linejoin="round"/>
<path d="M12 12.5V15.5" stroke="#666666" stroke-width="1.5" stroke-miterlimit="10" stroke-linecap="round" stroke-linejoin="round"/>
</svg>
